# xmcd
#
# Track frame offsets:
# 150
# 27912
# 48236
# 69634
# 80217
# 96882
# 126114
# 142935
# 158948
# 180423
# 193907
# 216205
# 237301
# 252480
# 266564
# 281005
#
# Disc length: 4022 seconds
#
#
# Revision: 0
# Processed by: cddbd v1.5.2PL0 Copyright (c) Steve Scherf et al.
# Submitted via: FreeRIP 2.944 
#
DISCID=ef0fb410
DTITLE=Fundo de Quintal - Ao Vivo Convida
DYEAR=2004
DGENRE=Samba
TTITLE0=Eu não quero mais
TTITLE1=Lucidez
TTITLE2=Parabéns pra você
TTITLE3=Bebeto loteria
TTITLE4=Não quero mais saber dela
TTITLE5=A batucada dos nossos tantãs - Levada desse tantã
TTITLE6=Tendência
TTITLE7=Nosso fogo
TTITLE8=Doce refúgio
TTITLE9=Trem das onze
TTITLE10=Vai lá, vai lá
TTITLE11=Boca sem dente - Só pra contrariar
TTITLE12=E eu não fui convidado
TTITLE13=Se chama mulher
TTITLE14=Caciqueando
TTITLE15=Seja sambista também - Do fundo do nosso quintal
EXTD=
EXTT0=Participação Especial: Arlindo Cruz, Sombrinha E Almir Guineto,Zeca Pagodinho
EXTT1=Participação Especial: Jorge Aragão
EXTT2=Participação Especial: Alcione
EXTT3=
EXTT4=Participação Especial: Almir Guineto
EXTT5=Participação Especial: Dudu Nobre
EXTT6=Participação Especial: D. Yvonne Lara
EXTT7=
EXTT8=Participação Especial: Luiz Carlos Da Vila
EXTT9=Participação Especial: Demônios da Garoa
EXTT10=Participação Especial: Leci Brandão
EXTT11=Participação Especial: Sombrinha
EXTT12=Participação Especial: Nei Lopes
EXTT13=
EXTT14=Participação Especial: Beth Carvalho
EXTT15=
PLAYORDER=
